<?xml version="1.0" encoding="utf-8"?>
<!-- Generator: Adobe Illustrator 24.3.0, SVG Export Plug-In . SVG Version: 6.00 Build 0)  -->
<svg version="1.1" id="Layer_1" xmlns="http://www.w3.org/2000/svg" xmlns:xlink="http://www.w3.org/1999/xlink" x="0px" y="0px"
	 viewBox="0 0 1268.6 336.38" style="enable-background:new 0 0 1268.6 336.38;" xml:space="preserve">
<style type="text/css">
	.st0{fill:#66DF99;}
	.st1{fill:#676767;stroke:#676767;stroke-width:2.4891;stroke-miterlimit:10;}
	.st2{fill:none;stroke:#676767;stroke-width:6.0219;stroke-miterlimit:10;}
</style>
<path class="st0" d="M119.37,142.17c0,0,122.63-115.76,390.04-57.7c173.35,37.64,408.53,88.97,644.26,5.71l0,79.73H119.57
	L119.37,142.17z"/>
<g>
	<path class="st1" d="M210.48,290.46l0.09-19.82h67.19v19.82h-6.19v-14.08h-54.81l-0.09,14.08H210.48z M261.79,273.24v-53.91h-30.05
		l-0.54,15.25c-0.18,4.72-0.46,9.25-0.85,13.59c-0.39,4.34-0.99,8.22-1.8,11.66c-0.81,3.44-1.88,6.23-3.23,8.39
		c-1.35,2.15-3.1,3.41-5.25,3.77l-7.27-1.35c2.39,0.12,4.38-0.75,5.97-2.6c1.58-1.85,2.81-4.45,3.68-7.8
		c0.87-3.35,1.51-7.26,1.93-11.75c0.42-4.49,0.72-9.33,0.89-14.53l0.72-20.36h42.34v59.65H261.79z"/>
	<path class="st1" d="M318.84,276.92c-4.73,0-9.11-0.79-13.14-2.38c-4.04-1.58-7.53-3.83-10.49-6.73c-2.96-2.9-5.26-6.28-6.91-10.14
		c-1.65-3.86-2.47-8.09-2.47-12.69c0-4.6,0.82-8.83,2.47-12.69c1.64-3.86,3.95-7.23,6.91-10.14c2.96-2.9,6.44-5.14,10.45-6.73
		c4.01-1.58,8.4-2.38,13.19-2.38c4.72,0,9.09,0.8,13.1,2.38c4,1.58,7.49,3.81,10.45,6.68c2.96,2.87,5.26,6.25,6.91,10.14
		c1.65,3.89,2.47,8.13,2.47,12.73c0,4.61-0.82,8.85-2.47,12.74c-1.64,3.89-3.95,7.27-6.91,10.14c-2.96,2.87-6.45,5.1-10.45,6.68
		C327.93,276.13,323.56,276.92,318.84,276.92z M318.84,271c3.77,0,7.25-0.64,10.45-1.93c3.2-1.28,5.98-3.11,8.34-5.47
		c2.37-2.36,4.2-5.11,5.52-8.25c1.31-3.14,1.97-6.59,1.97-10.36c0-3.77-0.66-7.22-1.97-10.36c-1.32-3.14-3.15-5.89-5.52-8.25
		c-2.36-2.36-5.14-4.19-8.34-5.47c-3.2-1.28-6.68-1.93-10.45-1.93s-7.27,0.65-10.5,1.93c-3.23,1.28-6.02,3.11-8.38,5.47
		c-2.37,2.36-4.22,5.11-5.56,8.25c-1.35,3.14-2.02,6.59-2.02,10.36c0,3.71,0.67,7.15,2.02,10.32c1.34,3.17,3.2,5.93,5.56,8.3
		c2.36,2.36,5.16,4.19,8.38,5.47C311.57,270.36,315.07,271,318.84,271z"/>
	<path class="st1" d="M367.64,276.38v-62.79h5.47l28.7,48.98h-2.87l28.44-48.98h5.47v62.79h-6.37v-52.83h1.53l-26.2,44.85h-3.14
		l-26.37-44.85h1.7v52.83H367.64z"/>
	<path class="st1" d="M484.16,276.38h-6.64v-62.79h6.64V276.38z M524.08,247.41h-40.64v-5.83h40.64V247.41z M523.45,213.59H530
		v62.79h-6.55V213.59z"/>
	<path class="st1" d="M541.93,276.38l28.7-62.79h6.55l28.7,62.79h-7l-26.37-58.93h2.69l-26.37,58.93H541.93z M553.23,259.61
		l1.97-5.38h36.51l1.97,5.38H553.23z"/>
	<path class="st1" d="M641.4,276.38v-62.79h23.5c5.32,0,9.9,0.85,13.72,2.55c3.83,1.7,6.77,4.16,8.84,7.35
		c2.06,3.2,3.1,7.07,3.1,11.62c0,4.43-1.03,8.24-3.1,11.44c-2.07,3.2-5.01,5.67-8.84,7.4c-3.83,1.73-8.4,2.6-13.72,2.6h-19.82
		l2.96-3.14v22.96H641.4z M648.04,253.96l-2.96-3.23h19.64c6.28,0,11.04-1.36,14.31-4.08c3.26-2.72,4.89-6.56,4.89-11.53
		c0-5.02-1.63-8.91-4.89-11.66c-3.26-2.75-8.03-4.12-14.31-4.12h-19.64l2.96-3.14V253.96z"/>
	<path class="st1" d="M732.54,276.92c-4.73,0-9.11-0.79-13.14-2.38c-4.04-1.58-7.53-3.83-10.49-6.73c-2.96-2.9-5.26-6.28-6.91-10.14
		c-1.65-3.86-2.47-8.09-2.47-12.69c0-4.6,0.82-8.83,2.47-12.69c1.64-3.86,3.95-7.23,6.91-10.14c2.96-2.9,6.44-5.14,10.45-6.73
		s8.4-2.38,13.19-2.38c4.72,0,9.09,0.8,13.1,2.38c4,1.58,7.49,3.81,10.45,6.68c2.96,2.87,5.26,6.25,6.91,10.14
		c1.65,3.89,2.47,8.13,2.47,12.73c0,4.61-0.82,8.85-2.47,12.74c-1.64,3.89-3.95,7.27-6.91,10.14c-2.96,2.87-6.45,5.1-10.45,6.68
		C741.63,276.13,737.27,276.92,732.54,276.92z M732.54,271c3.77,0,7.25-0.64,10.45-1.93c3.2-1.28,5.98-3.11,8.34-5.47
		c2.37-2.36,4.2-5.11,5.52-8.25c1.31-3.14,1.97-6.59,1.97-10.36c0-3.77-0.66-7.22-1.97-10.36c-1.32-3.14-3.15-5.89-5.52-8.25
		c-2.36-2.36-5.14-4.19-8.34-5.47c-3.2-1.28-6.68-1.93-10.45-1.93s-7.27,0.65-10.5,1.93c-3.23,1.28-6.02,3.11-8.38,5.47
		c-2.37,2.36-4.22,5.11-5.56,8.25c-1.35,3.14-2.02,6.59-2.02,10.36c0,3.71,0.67,7.15,2.02,10.32c1.34,3.17,3.2,5.93,5.56,8.3
		c2.36,2.36,5.16,4.19,8.38,5.47C725.28,270.36,728.78,271,732.54,271z"/>
	<path class="st1" d="M769.95,290.46l0.09-19.82h67.19v19.82h-6.19v-14.08h-54.81l-0.09,14.08H769.95z M821.26,273.24v-53.91h-30.05
		l-0.54,15.25c-0.18,4.72-0.46,9.25-0.85,13.59c-0.39,4.34-0.99,8.22-1.8,11.66c-0.81,3.44-1.88,6.23-3.23,8.39
		c-1.35,2.15-3.1,3.41-5.25,3.77l-7.27-1.35c2.39,0.12,4.38-0.75,5.97-2.6c1.58-1.85,2.81-4.45,3.68-7.8
		c0.87-3.35,1.51-7.26,1.93-11.75c0.42-4.49,0.72-9.33,0.89-14.53l0.72-20.36h42.34v59.65H821.26z"/>
	<path class="st1" d="M850.77,276.38v-62.79h6.55v52.03l40.19-52.03h6.01v62.79h-6.55v-51.94l-40.18,51.94H850.77z"/>
	<path class="st1" d="M931.32,276.38h-6.64v-62.79h6.64V276.38z M971.24,247.41H930.6v-5.83h40.63V247.41z M970.61,213.59h6.55
		v62.79h-6.55V213.59z"/>
	<path class="st1" d="M1004.96,270.64h37.77v5.74h-44.41v-62.79h43.06v5.74h-36.42V270.64z M1004.25,241.67h33.19v5.65h-33.19
		V241.67z"/>
</g>
<polyline class="st2" points="1148.84,169.92 1148.84,321.11 123.94,321.11 123.94,169.92 "/>
<path class="st0" d="M598.26,87.78c0,0,106.54-56.76,323.12-58.86c70.06-0.68,223.56,39.94,223.56,39.94s-41.89,23.26-75.1,31.53
	C968.53,125.62,717.03,123.51,598.26,87.78z"/>
</svg>
